<mxfile host="app.diagrams.net" modified="2023-04-26T19:05:18.955Z" agent="Mozilla/5.0 (Windows NT 10.0; Win64; x64; rv:109.0) Gecko/20100101 Firefox/112.0" etag="pJtgS9oByl_p6x_H_1Hn" version="21.2.2" type="github">
  <diagram name="Seite-1" id="tjiHpGkJgAOMIaKtLaRC">
    <mxGraphModel dx="2074" dy="1134" grid="1" gridSize="10" guides="1" tooltips="1" connect="1" arrows="1" fold="1" page="1" pageScale="1" pageWidth="827" pageHeight="1169" math="0" shadow="0">
      <root>
        <mxCell id="0" />
        <mxCell id="1" parent="0" />
        <mxCell id="rZsYr_JSFGJsFNx73eMD-3" value="&lt;div&gt;CMDResult:&lt;/div&gt;&lt;div&gt;&lt;br&gt;&lt;/div&gt;&lt;div&gt;* NEXT_PLAYER&lt;/div&gt;&lt;div&gt;* SUCCESS&lt;/div&gt;&lt;div&gt;* FAILED&lt;/div&gt;&lt;div&gt;* MEM_ERROR?&lt;br&gt;&lt;/div&gt;" style="rounded=0;whiteSpace=wrap;html=1;fillColor=#fff2cc;strokeColor=#d6b656;" vertex="1" parent="1">
          <mxGeometry x="1320" y="534" width="120" height="96" as="geometry" />
        </mxCell>
        <mxCell id="sEUtPiDchVaYO2Z2piP0-5" value="Database" style="swimlane;fontStyle=1;align=center;verticalAlign=top;childLayout=stackLayout;horizontal=1;startSize=26;horizontalStack=0;resizeParent=1;resizeParentMax=0;resizeLast=0;collapsible=1;marginBottom=0;whiteSpace=wrap;html=1;" parent="1" vertex="1">
          <mxGeometry x="80" y="140" width="160" height="104" as="geometry" />
        </mxCell>
        <mxCell id="sEUtPiDchVaYO2Z2piP0-6" value="&lt;div&gt;- filename: std::string&lt;/div&gt;&lt;div&gt;- file: std::istream&lt;br&gt;&lt;/div&gt;" style="text;strokeColor=none;fillColor=none;align=left;verticalAlign=top;spacingLeft=4;spacingRight=4;overflow=hidden;rotatable=0;points=[[0,0.5],[1,0.5]];portConstraint=eastwest;whiteSpace=wrap;html=1;" parent="sEUtPiDchVaYO2Z2piP0-5" vertex="1">
          <mxGeometry y="26" width="160" height="44" as="geometry" />
        </mxCell>
        <mxCell id="sEUtPiDchVaYO2Z2piP0-7" value="" style="line;strokeWidth=1;fillColor=none;align=left;verticalAlign=middle;spacingTop=-1;spacingLeft=3;spacingRight=3;rotatable=0;labelPosition=right;points=[];portConstraint=eastwest;strokeColor=inherit;" parent="sEUtPiDchVaYO2Z2piP0-5" vertex="1">
          <mxGeometry y="70" width="160" height="8" as="geometry" />
        </mxCell>
        <mxCell id="sEUtPiDchVaYO2Z2piP0-8" value="+ loadMap(filename): Map" style="text;strokeColor=none;fillColor=none;align=left;verticalAlign=top;spacingLeft=4;spacingRight=4;overflow=hidden;rotatable=0;points=[[0,0.5],[1,0.5]];portConstraint=eastwest;whiteSpace=wrap;html=1;" parent="sEUtPiDchVaYO2Z2piP0-5" vertex="1">
          <mxGeometry y="78" width="160" height="26" as="geometry" />
        </mxCell>
        <mxCell id="sEUtPiDchVaYO2Z2piP0-9" value="Map" style="swimlane;fontStyle=1;align=center;verticalAlign=top;childLayout=stackLayout;horizontal=1;startSize=26;horizontalStack=0;resizeParent=1;resizeParentMax=0;resizeLast=0;collapsible=1;marginBottom=0;whiteSpace=wrap;html=1;" parent="1" vertex="1">
          <mxGeometry x="30" y="310" width="260" height="104" as="geometry" />
        </mxCell>
        <mxCell id="sEUtPiDchVaYO2Z2piP0-10" value="&lt;div&gt;- structure: vector&amp;lt;vector&amp;lt;MapTile&amp;gt;&amp;gt;&lt;br&gt;&lt;/div&gt;" style="text;strokeColor=none;fillColor=none;align=left;verticalAlign=top;spacingLeft=4;spacingRight=4;overflow=hidden;rotatable=0;points=[[0,0.5],[1,0.5]];portConstraint=eastwest;whiteSpace=wrap;html=1;" parent="sEUtPiDchVaYO2Z2piP0-9" vertex="1">
          <mxGeometry y="26" width="260" height="44" as="geometry" />
        </mxCell>
        <mxCell id="sEUtPiDchVaYO2Z2piP0-11" value="" style="line;strokeWidth=1;fillColor=none;align=left;verticalAlign=middle;spacingTop=-1;spacingLeft=3;spacingRight=3;rotatable=0;labelPosition=right;points=[];portConstraint=eastwest;strokeColor=inherit;" parent="sEUtPiDchVaYO2Z2piP0-9" vertex="1">
          <mxGeometry y="70" width="260" height="8" as="geometry" />
        </mxCell>
        <mxCell id="sEUtPiDchVaYO2Z2piP0-12" value="+ print(std::ostream): void" style="text;strokeColor=none;fillColor=none;align=left;verticalAlign=top;spacingLeft=4;spacingRight=4;overflow=hidden;rotatable=0;points=[[0,0.5],[1,0.5]];portConstraint=eastwest;whiteSpace=wrap;html=1;" parent="sEUtPiDchVaYO2Z2piP0-9" vertex="1">
          <mxGeometry y="78" width="260" height="26" as="geometry" />
        </mxCell>
        <mxCell id="sEUtPiDchVaYO2Z2piP0-13" value="MapTile" style="swimlane;fontStyle=1;align=center;verticalAlign=top;childLayout=stackLayout;horizontal=1;startSize=26;horizontalStack=0;resizeParent=1;resizeParentMax=0;resizeLast=0;collapsible=1;marginBottom=0;whiteSpace=wrap;html=1;" parent="1" vertex="1">
          <mxGeometry x="30" y="570" width="260" height="130" as="geometry" />
        </mxCell>
        <mxCell id="sEUtPiDchVaYO2Z2piP0-14" value="&lt;div&gt;- landscape: Landscape*&lt;/div&gt;&lt;div&gt;- building: Building*&lt;br&gt;&lt;/div&gt;" style="text;strokeColor=none;fillColor=none;align=left;verticalAlign=top;spacingLeft=4;spacingRight=4;overflow=hidden;rotatable=0;points=[[0,0.5],[1,0.5]];portConstraint=eastwest;whiteSpace=wrap;html=1;" parent="sEUtPiDchVaYO2Z2piP0-13" vertex="1">
          <mxGeometry y="26" width="260" height="44" as="geometry" />
        </mxCell>
        <mxCell id="sEUtPiDchVaYO2Z2piP0-15" value="" style="line;strokeWidth=1;fillColor=none;align=left;verticalAlign=middle;spacingTop=-1;spacingLeft=3;spacingRight=3;rotatable=0;labelPosition=right;points=[];portConstraint=eastwest;strokeColor=inherit;" parent="sEUtPiDchVaYO2Z2piP0-13" vertex="1">
          <mxGeometry y="70" width="260" height="8" as="geometry" />
        </mxCell>
        <mxCell id="sEUtPiDchVaYO2Z2piP0-16" value="&lt;div&gt;+ setBuilding(x, y, Building*): void&lt;/div&gt;&lt;div&gt;+ getBuilding(x, y): Building*&lt;br&gt;&lt;/div&gt;" style="text;strokeColor=none;fillColor=none;align=left;verticalAlign=top;spacingLeft=4;spacingRight=4;overflow=hidden;rotatable=0;points=[[0,0.5],[1,0.5]];portConstraint=eastwest;whiteSpace=wrap;html=1;" parent="sEUtPiDchVaYO2Z2piP0-13" vertex="1">
          <mxGeometry y="78" width="260" height="52" as="geometry" />
        </mxCell>
        <mxCell id="sEUtPiDchVaYO2Z2piP0-17" value="" style="endArrow=open;endFill=1;endSize=12;html=1;rounded=0;" parent="1" source="sEUtPiDchVaYO2Z2piP0-9" target="sEUtPiDchVaYO2Z2piP0-13" edge="1">
          <mxGeometry width="160" relative="1" as="geometry">
            <mxPoint x="120" y="440" as="sourcePoint" />
            <mxPoint x="250" y="440" as="targetPoint" />
          </mxGeometry>
        </mxCell>
        <mxCell id="sEUtPiDchVaYO2Z2piP0-18" value="structure: vector&amp;lt;vector&amp;lt;MapTile&amp;gt;&amp;gt;" style="edgeLabel;html=1;align=center;verticalAlign=middle;resizable=0;points=[];" parent="sEUtPiDchVaYO2Z2piP0-17" vertex="1" connectable="0">
          <mxGeometry x="-0.241" y="1" relative="1" as="geometry">
            <mxPoint x="99" y="19" as="offset" />
          </mxGeometry>
        </mxCell>
        <mxCell id="sEUtPiDchVaYO2Z2piP0-19" value="Landscape" style="swimlane;fontStyle=1;align=center;verticalAlign=top;childLayout=stackLayout;horizontal=1;startSize=26;horizontalStack=0;resizeParent=1;resizeParentMax=0;resizeLast=0;collapsible=1;marginBottom=0;whiteSpace=wrap;html=1;" parent="1" vertex="1">
          <mxGeometry x="30" y="950" width="260" height="78" as="geometry" />
        </mxCell>
        <mxCell id="sEUtPiDchVaYO2Z2piP0-20" value="&lt;div&gt;- abbreviation: char&lt;/div&gt;&lt;div&gt;- name: std::string&lt;br&gt;&lt;/div&gt;" style="text;strokeColor=none;fillColor=none;align=left;verticalAlign=top;spacingLeft=4;spacingRight=4;overflow=hidden;rotatable=0;points=[[0,0.5],[1,0.5]];portConstraint=eastwest;whiteSpace=wrap;html=1;" parent="sEUtPiDchVaYO2Z2piP0-19" vertex="1">
          <mxGeometry y="26" width="260" height="44" as="geometry" />
        </mxCell>
        <mxCell id="sEUtPiDchVaYO2Z2piP0-21" value="" style="line;strokeWidth=1;fillColor=none;align=left;verticalAlign=middle;spacingTop=-1;spacingLeft=3;spacingRight=3;rotatable=0;labelPosition=right;points=[];portConstraint=eastwest;strokeColor=inherit;" parent="sEUtPiDchVaYO2Z2piP0-19" vertex="1">
          <mxGeometry y="70" width="260" height="8" as="geometry" />
        </mxCell>
        <mxCell id="sEUtPiDchVaYO2Z2piP0-23" value="" style="endArrow=open;endFill=1;endSize=12;html=1;rounded=0;" parent="1" source="sEUtPiDchVaYO2Z2piP0-13" target="sEUtPiDchVaYO2Z2piP0-19" edge="1">
          <mxGeometry width="160" relative="1" as="geometry">
            <mxPoint x="60" y="710" as="sourcePoint" />
            <mxPoint x="220" y="710" as="targetPoint" />
          </mxGeometry>
        </mxCell>
        <mxCell id="sEUtPiDchVaYO2Z2piP0-29" value="landscape: Landscape*" style="edgeLabel;html=1;align=center;verticalAlign=middle;resizable=0;points=[];" parent="sEUtPiDchVaYO2Z2piP0-23" vertex="1" connectable="0">
          <mxGeometry x="-0.1968" relative="1" as="geometry">
            <mxPoint x="-69" y="45" as="offset" />
          </mxGeometry>
        </mxCell>
        <mxCell id="sEUtPiDchVaYO2Z2piP0-24" value="Building" style="swimlane;fontStyle=1;align=center;verticalAlign=top;childLayout=stackLayout;horizontal=1;startSize=26;horizontalStack=0;resizeParent=1;resizeParentMax=0;resizeLast=0;collapsible=1;marginBottom=0;whiteSpace=wrap;html=1;" parent="1" vertex="1">
          <mxGeometry x="440" y="930" width="260" height="98" as="geometry" />
        </mxCell>
        <mxCell id="sEUtPiDchVaYO2Z2piP0-25" value="&lt;div&gt;- abbreviation: char&lt;/div&gt;&lt;div&gt;- name: std::string&lt;/div&gt;&lt;div&gt;- upgradeableTo: std::vector&amp;lt;Building*&amp;gt;&lt;/div&gt;&lt;div&gt;- maxCount: int&lt;br&gt;&lt;/div&gt;" style="text;strokeColor=none;fillColor=none;align=left;verticalAlign=top;spacingLeft=4;spacingRight=4;overflow=hidden;rotatable=0;points=[[0,0.5],[1,0.5]];portConstraint=eastwest;whiteSpace=wrap;html=1;" parent="sEUtPiDchVaYO2Z2piP0-24" vertex="1">
          <mxGeometry y="26" width="260" height="64" as="geometry" />
        </mxCell>
        <mxCell id="sEUtPiDchVaYO2Z2piP0-26" value="" style="line;strokeWidth=1;fillColor=none;align=left;verticalAlign=middle;spacingTop=-1;spacingLeft=3;spacingRight=3;rotatable=0;labelPosition=right;points=[];portConstraint=eastwest;strokeColor=inherit;" parent="sEUtPiDchVaYO2Z2piP0-24" vertex="1">
          <mxGeometry y="90" width="260" height="8" as="geometry" />
        </mxCell>
        <mxCell id="sEUtPiDchVaYO2Z2piP0-28" value="" style="endArrow=open;endFill=1;endSize=12;html=1;rounded=0;" parent="1" source="sEUtPiDchVaYO2Z2piP0-13" target="sEUtPiDchVaYO2Z2piP0-24" edge="1">
          <mxGeometry width="160" relative="1" as="geometry">
            <mxPoint x="170" y="684" as="sourcePoint" />
            <mxPoint x="170" y="790" as="targetPoint" />
          </mxGeometry>
        </mxCell>
        <mxCell id="sEUtPiDchVaYO2Z2piP0-30" value="building: Building*" style="edgeLabel;html=1;align=center;verticalAlign=middle;resizable=0;points=[];" parent="sEUtPiDchVaYO2Z2piP0-28" vertex="1" connectable="0">
          <mxGeometry x="0.1771" y="-2" relative="1" as="geometry">
            <mxPoint x="43" y="-28" as="offset" />
          </mxGeometry>
        </mxCell>
        <mxCell id="sEUtPiDchVaYO2Z2piP0-42" value="Player" style="swimlane;fontStyle=1;align=center;verticalAlign=top;childLayout=stackLayout;horizontal=1;startSize=26;horizontalStack=0;resizeParent=1;resizeParentMax=0;resizeLast=0;collapsible=1;marginBottom=0;whiteSpace=wrap;html=1;" parent="1" vertex="1">
          <mxGeometry x="630" y="60" width="260" height="164" as="geometry" />
        </mxCell>
        <mxCell id="sEUtPiDchVaYO2Z2piP0-43" value="&lt;div&gt;- id: int&lt;/div&gt;&lt;div&gt;- faction: Faction*&lt;/div&gt;&lt;div&gt;- coins: int&lt;/div&gt;&lt;div&gt;- workers: int&lt;/div&gt;&lt;div&gt;- priests: int&lt;/div&gt;&lt;div&gt;- power: vector&amp;lt;int&amp;gt; (size: 3)&lt;br&gt;&lt;/div&gt;&lt;div&gt;&lt;br&gt;&lt;/div&gt;" style="text;strokeColor=none;fillColor=none;align=left;verticalAlign=top;spacingLeft=4;spacingRight=4;overflow=hidden;rotatable=0;points=[[0,0.5],[1,0.5]];portConstraint=eastwest;whiteSpace=wrap;html=1;" parent="sEUtPiDchVaYO2Z2piP0-42" vertex="1">
          <mxGeometry y="26" width="260" height="104" as="geometry" />
        </mxCell>
        <mxCell id="sEUtPiDchVaYO2Z2piP0-44" value="" style="line;strokeWidth=1;fillColor=none;align=left;verticalAlign=middle;spacingTop=-1;spacingLeft=3;spacingRight=3;rotatable=0;labelPosition=right;points=[];portConstraint=eastwest;strokeColor=inherit;" parent="sEUtPiDchVaYO2Z2piP0-42" vertex="1">
          <mxGeometry y="130" width="260" height="8" as="geometry" />
        </mxCell>
        <mxCell id="sEUtPiDchVaYO2Z2piP0-45" value="+ print(std::ostream): void" style="text;strokeColor=none;fillColor=none;align=left;verticalAlign=top;spacingLeft=4;spacingRight=4;overflow=hidden;rotatable=0;points=[[0,0.5],[1,0.5]];portConstraint=eastwest;whiteSpace=wrap;html=1;" parent="sEUtPiDchVaYO2Z2piP0-42" vertex="1">
          <mxGeometry y="138" width="260" height="26" as="geometry" />
        </mxCell>
        <mxCell id="sEUtPiDchVaYO2Z2piP0-46" value="Faction" style="swimlane;fontStyle=1;align=center;verticalAlign=top;childLayout=stackLayout;horizontal=1;startSize=26;horizontalStack=0;resizeParent=1;resizeParentMax=0;resizeLast=0;collapsible=1;marginBottom=0;whiteSpace=wrap;html=1;" parent="1" vertex="1">
          <mxGeometry x="300" y="60" width="260" height="98" as="geometry" />
        </mxCell>
        <mxCell id="sEUtPiDchVaYO2Z2piP0-47" value="&lt;div&gt;- name: std::string&lt;/div&gt;&lt;div&gt;- terraformSequences: std::vector&amp;lt;std::vector&amp;lt;Landscape*&amp;gt;&amp;gt;&lt;/div&gt;&lt;div&gt;&lt;br&gt;&lt;/div&gt;&lt;div&gt;&lt;br&gt;&lt;/div&gt;" style="text;strokeColor=none;fillColor=none;align=left;verticalAlign=top;spacingLeft=4;spacingRight=4;overflow=hidden;rotatable=0;points=[[0,0.5],[1,0.5]];portConstraint=eastwest;whiteSpace=wrap;html=1;" parent="sEUtPiDchVaYO2Z2piP0-46" vertex="1">
          <mxGeometry y="26" width="260" height="64" as="geometry" />
        </mxCell>
        <mxCell id="sEUtPiDchVaYO2Z2piP0-48" value="" style="line;strokeWidth=1;fillColor=none;align=left;verticalAlign=middle;spacingTop=-1;spacingLeft=3;spacingRight=3;rotatable=0;labelPosition=right;points=[];portConstraint=eastwest;strokeColor=inherit;" parent="sEUtPiDchVaYO2Z2piP0-46" vertex="1">
          <mxGeometry y="90" width="260" height="8" as="geometry" />
        </mxCell>
        <mxCell id="sEUtPiDchVaYO2Z2piP0-50" value="" style="endArrow=open;endFill=1;endSize=12;html=1;rounded=0;" parent="1" source="sEUtPiDchVaYO2Z2piP0-42" target="sEUtPiDchVaYO2Z2piP0-46" edge="1">
          <mxGeometry width="160" relative="1" as="geometry">
            <mxPoint x="710" y="180" as="sourcePoint" />
            <mxPoint x="940" y="-49.78125" as="targetPoint" />
          </mxGeometry>
        </mxCell>
        <mxCell id="sEUtPiDchVaYO2Z2piP0-55" value="return codes as enums" style="rounded=0;whiteSpace=wrap;html=1;fillColor=#fff2cc;strokeColor=#d6b656;" parent="1" vertex="1">
          <mxGeometry x="760" y="332" width="80" height="60" as="geometry" />
        </mxCell>
        <mxCell id="sEUtPiDchVaYO2Z2piP0-56" value="Command (abstract)" style="swimlane;fontStyle=1;align=center;verticalAlign=top;childLayout=stackLayout;horizontal=1;startSize=26;horizontalStack=0;resizeParent=1;resizeParentMax=0;resizeLast=0;collapsible=1;marginBottom=0;whiteSpace=wrap;html=1;" parent="1" vertex="1">
          <mxGeometry x="990" y="430" width="440" height="104" as="geometry" />
        </mxCell>
        <mxCell id="sEUtPiDchVaYO2Z2piP0-57" value="&lt;div&gt;- name: std::string&lt;br&gt;&lt;/div&gt;&lt;div&gt;&lt;br&gt;&lt;/div&gt;&lt;div&gt;&lt;br&gt;&lt;/div&gt;" style="text;strokeColor=none;fillColor=none;align=left;verticalAlign=top;spacingLeft=4;spacingRight=4;overflow=hidden;rotatable=0;points=[[0,0.5],[1,0.5]];portConstraint=eastwest;whiteSpace=wrap;html=1;" parent="sEUtPiDchVaYO2Z2piP0-56" vertex="1">
          <mxGeometry y="26" width="440" height="44" as="geometry" />
        </mxCell>
        <mxCell id="sEUtPiDchVaYO2Z2piP0-58" value="" style="line;strokeWidth=1;fillColor=none;align=left;verticalAlign=middle;spacingTop=-1;spacingLeft=3;spacingRight=3;rotatable=0;labelPosition=right;points=[];portConstraint=eastwest;strokeColor=inherit;" parent="sEUtPiDchVaYO2Z2piP0-56" vertex="1">
          <mxGeometry y="70" width="440" height="8" as="geometry" />
        </mxCell>
        <mxCell id="sEUtPiDchVaYO2Z2piP0-59" value="&lt;div&gt;+ abstract execute(Map&amp;amp;, player&amp;amp;, params: std::vector&amp;lt;std::string&amp;gt;):CMDResult&lt;/div&gt;" style="text;strokeColor=none;fillColor=none;align=left;verticalAlign=top;spacingLeft=4;spacingRight=4;overflow=hidden;rotatable=0;points=[[0,0.5],[1,0.5]];portConstraint=eastwest;whiteSpace=wrap;html=1;" parent="sEUtPiDchVaYO2Z2piP0-56" vertex="1">
          <mxGeometry y="78" width="440" height="26" as="geometry" />
        </mxCell>
        <mxCell id="sEUtPiDchVaYO2Z2piP0-60" value="GameLogic" style="swimlane;fontStyle=1;align=center;verticalAlign=top;childLayout=stackLayout;horizontal=1;startSize=26;horizontalStack=0;resizeParent=1;resizeParentMax=0;resizeLast=0;collapsible=1;marginBottom=0;whiteSpace=wrap;html=1;" parent="1" vertex="1">
          <mxGeometry x="480" y="367" width="290" height="230" as="geometry" />
        </mxCell>
        <mxCell id="sEUtPiDchVaYO2Z2piP0-61" value="&lt;div&gt;- commands: std::map&amp;lt;std::string, Command*&amp;gt;&lt;/div&gt;&lt;div&gt;- players: std::vector&amp;lt;Player*&amp;gt;&lt;/div&gt;&lt;div&gt;- map: Map*&lt;/div&gt;&lt;div&gt;- db: Database*&lt;/div&gt;&lt;div&gt;- factions: std::vector&amp;lt;Faction*&amp;gt;&lt;/div&gt;&lt;div&gt;- currentTurn: int&lt;br&gt;&lt;/div&gt;&lt;div&gt;&lt;br&gt;&lt;/div&gt;&lt;div&gt;&lt;br&gt;&lt;/div&gt;" style="text;strokeColor=none;fillColor=none;align=left;verticalAlign=top;spacingLeft=4;spacingRight=4;overflow=hidden;rotatable=0;points=[[0,0.5],[1,0.5]];portConstraint=eastwest;whiteSpace=wrap;html=1;" parent="sEUtPiDchVaYO2Z2piP0-60" vertex="1">
          <mxGeometry y="26" width="290" height="104" as="geometry" />
        </mxCell>
        <mxCell id="sEUtPiDchVaYO2Z2piP0-62" value="" style="line;strokeWidth=1;fillColor=none;align=left;verticalAlign=middle;spacingTop=-1;spacingLeft=3;spacingRight=3;rotatable=0;labelPosition=right;points=[];portConstraint=eastwest;strokeColor=inherit;" parent="sEUtPiDchVaYO2Z2piP0-60" vertex="1">
          <mxGeometry y="130" width="290" height="8" as="geometry" />
        </mxCell>
        <mxCell id="sEUtPiDchVaYO2Z2piP0-63" value="&lt;div&gt;+ startGamePhase(): void&lt;/div&gt;&lt;div&gt;+ incomePhase(): void&lt;/div&gt;&lt;div&gt;+ actionPhase(): void&lt;/div&gt;&lt;div&gt;+ endGamePhase(): void&lt;br&gt;&lt;/div&gt;" style="text;strokeColor=none;fillColor=none;align=left;verticalAlign=top;spacingLeft=4;spacingRight=4;overflow=hidden;rotatable=0;points=[[0,0.5],[1,0.5]];portConstraint=eastwest;whiteSpace=wrap;html=1;" parent="sEUtPiDchVaYO2Z2piP0-60" vertex="1">
          <mxGeometry y="138" width="290" height="92" as="geometry" />
        </mxCell>
        <mxCell id="sEUtPiDchVaYO2Z2piP0-74" value="" style="endArrow=block;endSize=16;endFill=0;html=1;rounded=0;edgeStyle=elbowEdgeStyle;" parent="1" source="sEUtPiDchVaYO2Z2piP0-107" target="sEUtPiDchVaYO2Z2piP0-56" edge="1">
          <mxGeometry width="160" relative="1" as="geometry">
            <mxPoint x="1190" y="384" as="sourcePoint" />
            <mxPoint x="844" y="444" as="targetPoint" />
            <Array as="points">
              <mxPoint x="1205" y="400" />
            </Array>
          </mxGeometry>
        </mxCell>
        <mxCell id="sEUtPiDchVaYO2Z2piP0-87" value="BuyCommand" style="swimlane;fontStyle=1;align=center;verticalAlign=top;childLayout=stackLayout;horizontal=1;startSize=26;horizontalStack=0;resizeParent=1;resizeParentMax=0;resizeLast=0;collapsible=1;marginBottom=0;whiteSpace=wrap;html=1;" parent="1" vertex="1">
          <mxGeometry x="1280" y="170" width="150" height="84" as="geometry" />
        </mxCell>
        <mxCell id="sEUtPiDchVaYO2Z2piP0-88" value="&lt;div&gt;&lt;br&gt;&lt;/div&gt;&lt;div&gt;&lt;br&gt;&lt;/div&gt;&lt;div&gt;&lt;br&gt;&lt;/div&gt;" style="text;strokeColor=none;fillColor=none;align=left;verticalAlign=top;spacingLeft=4;spacingRight=4;overflow=hidden;rotatable=0;points=[[0,0.5],[1,0.5]];portConstraint=eastwest;whiteSpace=wrap;html=1;" parent="sEUtPiDchVaYO2Z2piP0-87" vertex="1">
          <mxGeometry y="26" width="150" height="24" as="geometry" />
        </mxCell>
        <mxCell id="sEUtPiDchVaYO2Z2piP0-89" value="" style="line;strokeWidth=1;fillColor=none;align=left;verticalAlign=middle;spacingTop=-1;spacingLeft=3;spacingRight=3;rotatable=0;labelPosition=right;points=[];portConstraint=eastwest;strokeColor=inherit;" parent="sEUtPiDchVaYO2Z2piP0-87" vertex="1">
          <mxGeometry y="50" width="150" height="8" as="geometry" />
        </mxCell>
        <mxCell id="sEUtPiDchVaYO2Z2piP0-90" value="&lt;div&gt;&lt;br&gt;&lt;/div&gt;" style="text;strokeColor=none;fillColor=none;align=left;verticalAlign=top;spacingLeft=4;spacingRight=4;overflow=hidden;rotatable=0;points=[[0,0.5],[1,0.5]];portConstraint=eastwest;whiteSpace=wrap;html=1;" parent="sEUtPiDchVaYO2Z2piP0-87" vertex="1">
          <mxGeometry y="58" width="150" height="26" as="geometry" />
        </mxCell>
        <mxCell id="sEUtPiDchVaYO2Z2piP0-91" value="CostsCommand" style="swimlane;fontStyle=1;align=center;verticalAlign=top;childLayout=stackLayout;horizontal=1;startSize=26;horizontalStack=0;resizeParent=1;resizeParentMax=0;resizeLast=0;collapsible=1;marginBottom=0;whiteSpace=wrap;html=1;" parent="1" vertex="1">
          <mxGeometry x="990" y="170" width="150" height="84" as="geometry" />
        </mxCell>
        <mxCell id="sEUtPiDchVaYO2Z2piP0-92" value="&lt;div&gt;&lt;br&gt;&lt;/div&gt;&lt;div&gt;&lt;br&gt;&lt;/div&gt;&lt;div&gt;&lt;br&gt;&lt;/div&gt;" style="text;strokeColor=none;fillColor=none;align=left;verticalAlign=top;spacingLeft=4;spacingRight=4;overflow=hidden;rotatable=0;points=[[0,0.5],[1,0.5]];portConstraint=eastwest;whiteSpace=wrap;html=1;" parent="sEUtPiDchVaYO2Z2piP0-91" vertex="1">
          <mxGeometry y="26" width="150" height="24" as="geometry" />
        </mxCell>
        <mxCell id="sEUtPiDchVaYO2Z2piP0-93" value="" style="line;strokeWidth=1;fillColor=none;align=left;verticalAlign=middle;spacingTop=-1;spacingLeft=3;spacingRight=3;rotatable=0;labelPosition=right;points=[];portConstraint=eastwest;strokeColor=inherit;" parent="sEUtPiDchVaYO2Z2piP0-91" vertex="1">
          <mxGeometry y="50" width="150" height="8" as="geometry" />
        </mxCell>
        <mxCell id="sEUtPiDchVaYO2Z2piP0-94" value="&lt;div&gt;&lt;br&gt;&lt;/div&gt;" style="text;strokeColor=none;fillColor=none;align=left;verticalAlign=top;spacingLeft=4;spacingRight=4;overflow=hidden;rotatable=0;points=[[0,0.5],[1,0.5]];portConstraint=eastwest;whiteSpace=wrap;html=1;" parent="sEUtPiDchVaYO2Z2piP0-91" vertex="1">
          <mxGeometry y="58" width="150" height="26" as="geometry" />
        </mxCell>
        <mxCell id="sEUtPiDchVaYO2Z2piP0-95" value="HelpCommand" style="swimlane;fontStyle=1;align=center;verticalAlign=top;childLayout=stackLayout;horizontal=1;startSize=26;horizontalStack=0;resizeParent=1;resizeParentMax=0;resizeLast=0;collapsible=1;marginBottom=0;whiteSpace=wrap;html=1;" parent="1" vertex="1">
          <mxGeometry x="1280" y="60" width="150" height="84" as="geometry" />
        </mxCell>
        <mxCell id="sEUtPiDchVaYO2Z2piP0-96" value="&lt;div&gt;&lt;br&gt;&lt;/div&gt;&lt;div&gt;&lt;br&gt;&lt;/div&gt;&lt;div&gt;&lt;br&gt;&lt;/div&gt;" style="text;strokeColor=none;fillColor=none;align=left;verticalAlign=top;spacingLeft=4;spacingRight=4;overflow=hidden;rotatable=0;points=[[0,0.5],[1,0.5]];portConstraint=eastwest;whiteSpace=wrap;html=1;" parent="sEUtPiDchVaYO2Z2piP0-95" vertex="1">
          <mxGeometry y="26" width="150" height="24" as="geometry" />
        </mxCell>
        <mxCell id="sEUtPiDchVaYO2Z2piP0-97" value="" style="line;strokeWidth=1;fillColor=none;align=left;verticalAlign=middle;spacingTop=-1;spacingLeft=3;spacingRight=3;rotatable=0;labelPosition=right;points=[];portConstraint=eastwest;strokeColor=inherit;" parent="sEUtPiDchVaYO2Z2piP0-95" vertex="1">
          <mxGeometry y="50" width="150" height="8" as="geometry" />
        </mxCell>
        <mxCell id="sEUtPiDchVaYO2Z2piP0-98" value="&lt;div&gt;&lt;br&gt;&lt;/div&gt;" style="text;strokeColor=none;fillColor=none;align=left;verticalAlign=top;spacingLeft=4;spacingRight=4;overflow=hidden;rotatable=0;points=[[0,0.5],[1,0.5]];portConstraint=eastwest;whiteSpace=wrap;html=1;" parent="sEUtPiDchVaYO2Z2piP0-95" vertex="1">
          <mxGeometry y="58" width="150" height="26" as="geometry" />
        </mxCell>
        <mxCell id="sEUtPiDchVaYO2Z2piP0-99" value="QuitCommand" style="swimlane;fontStyle=1;align=center;verticalAlign=top;childLayout=stackLayout;horizontal=1;startSize=26;horizontalStack=0;resizeParent=1;resizeParentMax=0;resizeLast=0;collapsible=1;marginBottom=0;whiteSpace=wrap;html=1;" parent="1" vertex="1">
          <mxGeometry x="990" y="60" width="150" height="84" as="geometry" />
        </mxCell>
        <mxCell id="sEUtPiDchVaYO2Z2piP0-100" value="&lt;div&gt;&lt;br&gt;&lt;/div&gt;&lt;div&gt;&lt;br&gt;&lt;/div&gt;&lt;div&gt;&lt;br&gt;&lt;/div&gt;" style="text;strokeColor=none;fillColor=none;align=left;verticalAlign=top;spacingLeft=4;spacingRight=4;overflow=hidden;rotatable=0;points=[[0,0.5],[1,0.5]];portConstraint=eastwest;whiteSpace=wrap;html=1;" parent="sEUtPiDchVaYO2Z2piP0-99" vertex="1">
          <mxGeometry y="26" width="150" height="24" as="geometry" />
        </mxCell>
        <mxCell id="sEUtPiDchVaYO2Z2piP0-101" value="" style="line;strokeWidth=1;fillColor=none;align=left;verticalAlign=middle;spacingTop=-1;spacingLeft=3;spacingRight=3;rotatable=0;labelPosition=right;points=[];portConstraint=eastwest;strokeColor=inherit;" parent="sEUtPiDchVaYO2Z2piP0-99" vertex="1">
          <mxGeometry y="50" width="150" height="8" as="geometry" />
        </mxCell>
        <mxCell id="sEUtPiDchVaYO2Z2piP0-102" value="&lt;div&gt;&lt;br&gt;&lt;/div&gt;" style="text;strokeColor=none;fillColor=none;align=left;verticalAlign=top;spacingLeft=4;spacingRight=4;overflow=hidden;rotatable=0;points=[[0,0.5],[1,0.5]];portConstraint=eastwest;whiteSpace=wrap;html=1;" parent="sEUtPiDchVaYO2Z2piP0-99" vertex="1">
          <mxGeometry y="58" width="150" height="26" as="geometry" />
        </mxCell>
        <mxCell id="sEUtPiDchVaYO2Z2piP0-103" value="MapCommand" style="swimlane;fontStyle=1;align=center;verticalAlign=top;childLayout=stackLayout;horizontal=1;startSize=26;horizontalStack=0;resizeParent=1;resizeParentMax=0;resizeLast=0;collapsible=1;marginBottom=0;whiteSpace=wrap;html=1;" parent="1" vertex="1">
          <mxGeometry x="990" y="600" width="150" height="84" as="geometry" />
        </mxCell>
        <mxCell id="sEUtPiDchVaYO2Z2piP0-104" value="- active: bool" style="text;strokeColor=none;fillColor=none;align=left;verticalAlign=top;spacingLeft=4;spacingRight=4;overflow=hidden;rotatable=0;points=[[0,0.5],[1,0.5]];portConstraint=eastwest;whiteSpace=wrap;html=1;" parent="sEUtPiDchVaYO2Z2piP0-103" vertex="1">
          <mxGeometry y="26" width="150" height="24" as="geometry" />
        </mxCell>
        <mxCell id="sEUtPiDchVaYO2Z2piP0-105" value="" style="line;strokeWidth=1;fillColor=none;align=left;verticalAlign=middle;spacingTop=-1;spacingLeft=3;spacingRight=3;rotatable=0;labelPosition=right;points=[];portConstraint=eastwest;strokeColor=inherit;" parent="sEUtPiDchVaYO2Z2piP0-103" vertex="1">
          <mxGeometry y="50" width="150" height="8" as="geometry" />
        </mxCell>
        <mxCell id="sEUtPiDchVaYO2Z2piP0-106" value="&lt;div&gt;&lt;br&gt;&lt;/div&gt;" style="text;strokeColor=none;fillColor=none;align=left;verticalAlign=top;spacingLeft=4;spacingRight=4;overflow=hidden;rotatable=0;points=[[0,0.5],[1,0.5]];portConstraint=eastwest;whiteSpace=wrap;html=1;" parent="sEUtPiDchVaYO2Z2piP0-103" vertex="1">
          <mxGeometry y="58" width="150" height="26" as="geometry" />
        </mxCell>
        <mxCell id="sEUtPiDchVaYO2Z2piP0-107" value="SwapCommand" style="swimlane;fontStyle=1;align=center;verticalAlign=top;childLayout=stackLayout;horizontal=1;startSize=26;horizontalStack=0;resizeParent=1;resizeParentMax=0;resizeLast=0;collapsible=1;marginBottom=0;whiteSpace=wrap;html=1;" parent="1" vertex="1">
          <mxGeometry x="990" y="276" width="150" height="84" as="geometry" />
        </mxCell>
        <mxCell id="sEUtPiDchVaYO2Z2piP0-108" value="&lt;div&gt;&lt;br&gt;&lt;/div&gt;&lt;div&gt;&lt;br&gt;&lt;/div&gt;&lt;div&gt;&lt;br&gt;&lt;/div&gt;" style="text;strokeColor=none;fillColor=none;align=left;verticalAlign=top;spacingLeft=4;spacingRight=4;overflow=hidden;rotatable=0;points=[[0,0.5],[1,0.5]];portConstraint=eastwest;whiteSpace=wrap;html=1;" parent="sEUtPiDchVaYO2Z2piP0-107" vertex="1">
          <mxGeometry y="26" width="150" height="24" as="geometry" />
        </mxCell>
        <mxCell id="sEUtPiDchVaYO2Z2piP0-109" value="" style="line;strokeWidth=1;fillColor=none;align=left;verticalAlign=middle;spacingTop=-1;spacingLeft=3;spacingRight=3;rotatable=0;labelPosition=right;points=[];portConstraint=eastwest;strokeColor=inherit;" parent="sEUtPiDchVaYO2Z2piP0-107" vertex="1">
          <mxGeometry y="50" width="150" height="8" as="geometry" />
        </mxCell>
        <mxCell id="sEUtPiDchVaYO2Z2piP0-110" value="&lt;div&gt;&lt;br&gt;&lt;/div&gt;" style="text;strokeColor=none;fillColor=none;align=left;verticalAlign=top;spacingLeft=4;spacingRight=4;overflow=hidden;rotatable=0;points=[[0,0.5],[1,0.5]];portConstraint=eastwest;whiteSpace=wrap;html=1;" parent="sEUtPiDchVaYO2Z2piP0-107" vertex="1">
          <mxGeometry y="58" width="150" height="26" as="geometry" />
        </mxCell>
        <mxCell id="sEUtPiDchVaYO2Z2piP0-111" value="TerraformCommand" style="swimlane;fontStyle=1;align=center;verticalAlign=top;childLayout=stackLayout;horizontal=1;startSize=26;horizontalStack=0;resizeParent=1;resizeParentMax=0;resizeLast=0;collapsible=1;marginBottom=0;whiteSpace=wrap;html=1;" parent="1" vertex="1">
          <mxGeometry x="1280" y="276" width="150" height="84" as="geometry" />
        </mxCell>
        <mxCell id="sEUtPiDchVaYO2Z2piP0-112" value="&lt;div&gt;&lt;br&gt;&lt;/div&gt;&lt;div&gt;&lt;br&gt;&lt;/div&gt;&lt;div&gt;&lt;br&gt;&lt;/div&gt;" style="text;strokeColor=none;fillColor=none;align=left;verticalAlign=top;spacingLeft=4;spacingRight=4;overflow=hidden;rotatable=0;points=[[0,0.5],[1,0.5]];portConstraint=eastwest;whiteSpace=wrap;html=1;" parent="sEUtPiDchVaYO2Z2piP0-111" vertex="1">
          <mxGeometry y="26" width="150" height="24" as="geometry" />
        </mxCell>
        <mxCell id="sEUtPiDchVaYO2Z2piP0-113" value="" style="line;strokeWidth=1;fillColor=none;align=left;verticalAlign=middle;spacingTop=-1;spacingLeft=3;spacingRight=3;rotatable=0;labelPosition=right;points=[];portConstraint=eastwest;strokeColor=inherit;" parent="sEUtPiDchVaYO2Z2piP0-111" vertex="1">
          <mxGeometry y="50" width="150" height="8" as="geometry" />
        </mxCell>
        <mxCell id="sEUtPiDchVaYO2Z2piP0-114" value="&lt;div&gt;&lt;br&gt;&lt;/div&gt;" style="text;strokeColor=none;fillColor=none;align=left;verticalAlign=top;spacingLeft=4;spacingRight=4;overflow=hidden;rotatable=0;points=[[0,0.5],[1,0.5]];portConstraint=eastwest;whiteSpace=wrap;html=1;" parent="sEUtPiDchVaYO2Z2piP0-111" vertex="1">
          <mxGeometry y="58" width="150" height="26" as="geometry" />
        </mxCell>
        <mxCell id="sEUtPiDchVaYO2Z2piP0-119" value="BuildCommand" style="swimlane;fontStyle=1;align=center;verticalAlign=top;childLayout=stackLayout;horizontal=1;startSize=26;horizontalStack=0;resizeParent=1;resizeParentMax=0;resizeLast=0;collapsible=1;marginBottom=0;whiteSpace=wrap;html=1;" parent="1" vertex="1">
          <mxGeometry x="990" y="699" width="150" height="84" as="geometry" />
        </mxCell>
        <mxCell id="sEUtPiDchVaYO2Z2piP0-120" value="&lt;div&gt;&lt;br&gt;&lt;/div&gt;&lt;div&gt;&lt;br&gt;&lt;/div&gt;&lt;div&gt;&lt;br&gt;&lt;/div&gt;" style="text;strokeColor=none;fillColor=none;align=left;verticalAlign=top;spacingLeft=4;spacingRight=4;overflow=hidden;rotatable=0;points=[[0,0.5],[1,0.5]];portConstraint=eastwest;whiteSpace=wrap;html=1;" parent="sEUtPiDchVaYO2Z2piP0-119" vertex="1">
          <mxGeometry y="26" width="150" height="24" as="geometry" />
        </mxCell>
        <mxCell id="sEUtPiDchVaYO2Z2piP0-121" value="" style="line;strokeWidth=1;fillColor=none;align=left;verticalAlign=middle;spacingTop=-1;spacingLeft=3;spacingRight=3;rotatable=0;labelPosition=right;points=[];portConstraint=eastwest;strokeColor=inherit;" parent="sEUtPiDchVaYO2Z2piP0-119" vertex="1">
          <mxGeometry y="50" width="150" height="8" as="geometry" />
        </mxCell>
        <mxCell id="sEUtPiDchVaYO2Z2piP0-122" value="&lt;div&gt;&lt;br&gt;&lt;/div&gt;" style="text;strokeColor=none;fillColor=none;align=left;verticalAlign=top;spacingLeft=4;spacingRight=4;overflow=hidden;rotatable=0;points=[[0,0.5],[1,0.5]];portConstraint=eastwest;whiteSpace=wrap;html=1;" parent="sEUtPiDchVaYO2Z2piP0-119" vertex="1">
          <mxGeometry y="58" width="150" height="26" as="geometry" />
        </mxCell>
        <mxCell id="sEUtPiDchVaYO2Z2piP0-123" value="UpgradeCommand" style="swimlane;fontStyle=1;align=center;verticalAlign=top;childLayout=stackLayout;horizontal=1;startSize=26;horizontalStack=0;resizeParent=1;resizeParentMax=0;resizeLast=0;collapsible=1;marginBottom=0;whiteSpace=wrap;html=1;" parent="1" vertex="1">
          <mxGeometry x="1280" y="699" width="150" height="84" as="geometry" />
        </mxCell>
        <mxCell id="sEUtPiDchVaYO2Z2piP0-124" value="&lt;div&gt;&lt;br&gt;&lt;/div&gt;&lt;div&gt;&lt;br&gt;&lt;/div&gt;&lt;div&gt;&lt;br&gt;&lt;/div&gt;" style="text;strokeColor=none;fillColor=none;align=left;verticalAlign=top;spacingLeft=4;spacingRight=4;overflow=hidden;rotatable=0;points=[[0,0.5],[1,0.5]];portConstraint=eastwest;whiteSpace=wrap;html=1;" parent="sEUtPiDchVaYO2Z2piP0-123" vertex="1">
          <mxGeometry y="26" width="150" height="24" as="geometry" />
        </mxCell>
        <mxCell id="sEUtPiDchVaYO2Z2piP0-125" value="" style="line;strokeWidth=1;fillColor=none;align=left;verticalAlign=middle;spacingTop=-1;spacingLeft=3;spacingRight=3;rotatable=0;labelPosition=right;points=[];portConstraint=eastwest;strokeColor=inherit;" parent="sEUtPiDchVaYO2Z2piP0-123" vertex="1">
          <mxGeometry y="50" width="150" height="8" as="geometry" />
        </mxCell>
        <mxCell id="sEUtPiDchVaYO2Z2piP0-126" value="&lt;div&gt;&lt;br&gt;&lt;/div&gt;" style="text;strokeColor=none;fillColor=none;align=left;verticalAlign=top;spacingLeft=4;spacingRight=4;overflow=hidden;rotatable=0;points=[[0,0.5],[1,0.5]];portConstraint=eastwest;whiteSpace=wrap;html=1;" parent="sEUtPiDchVaYO2Z2piP0-123" vertex="1">
          <mxGeometry y="58" width="150" height="26" as="geometry" />
        </mxCell>
        <mxCell id="sEUtPiDchVaYO2Z2piP0-127" value="SpecialCommand" style="swimlane;fontStyle=1;align=center;verticalAlign=top;childLayout=stackLayout;horizontal=1;startSize=26;horizontalStack=0;resizeParent=1;resizeParentMax=0;resizeLast=0;collapsible=1;marginBottom=0;whiteSpace=wrap;html=1;" parent="1" vertex="1">
          <mxGeometry x="990" y="800" width="150" height="84" as="geometry" />
        </mxCell>
        <mxCell id="sEUtPiDchVaYO2Z2piP0-128" value="&lt;div&gt;&lt;br&gt;&lt;/div&gt;&lt;div&gt;&lt;br&gt;&lt;/div&gt;&lt;div&gt;&lt;br&gt;&lt;/div&gt;" style="text;strokeColor=none;fillColor=none;align=left;verticalAlign=top;spacingLeft=4;spacingRight=4;overflow=hidden;rotatable=0;points=[[0,0.5],[1,0.5]];portConstraint=eastwest;whiteSpace=wrap;html=1;" parent="sEUtPiDchVaYO2Z2piP0-127" vertex="1">
          <mxGeometry y="26" width="150" height="24" as="geometry" />
        </mxCell>
        <mxCell id="sEUtPiDchVaYO2Z2piP0-129" value="" style="line;strokeWidth=1;fillColor=none;align=left;verticalAlign=middle;spacingTop=-1;spacingLeft=3;spacingRight=3;rotatable=0;labelPosition=right;points=[];portConstraint=eastwest;strokeColor=inherit;" parent="sEUtPiDchVaYO2Z2piP0-127" vertex="1">
          <mxGeometry y="50" width="150" height="8" as="geometry" />
        </mxCell>
        <mxCell id="sEUtPiDchVaYO2Z2piP0-130" value="&lt;div&gt;&lt;br&gt;&lt;/div&gt;" style="text;strokeColor=none;fillColor=none;align=left;verticalAlign=top;spacingLeft=4;spacingRight=4;overflow=hidden;rotatable=0;points=[[0,0.5],[1,0.5]];portConstraint=eastwest;whiteSpace=wrap;html=1;" parent="sEUtPiDchVaYO2Z2piP0-127" vertex="1">
          <mxGeometry y="58" width="150" height="26" as="geometry" />
        </mxCell>
        <mxCell id="sEUtPiDchVaYO2Z2piP0-131" value="PassCommand" style="swimlane;fontStyle=1;align=center;verticalAlign=top;childLayout=stackLayout;horizontal=1;startSize=26;horizontalStack=0;resizeParent=1;resizeParentMax=0;resizeLast=0;collapsible=1;marginBottom=0;whiteSpace=wrap;html=1;" parent="1" vertex="1">
          <mxGeometry x="1280" y="800" width="150" height="84" as="geometry" />
        </mxCell>
        <mxCell id="sEUtPiDchVaYO2Z2piP0-132" value="&lt;div&gt;&lt;br&gt;&lt;/div&gt;&lt;div&gt;&lt;br&gt;&lt;/div&gt;&lt;div&gt;&lt;br&gt;&lt;/div&gt;" style="text;strokeColor=none;fillColor=none;align=left;verticalAlign=top;spacingLeft=4;spacingRight=4;overflow=hidden;rotatable=0;points=[[0,0.5],[1,0.5]];portConstraint=eastwest;whiteSpace=wrap;html=1;" parent="sEUtPiDchVaYO2Z2piP0-131" vertex="1">
          <mxGeometry y="26" width="150" height="24" as="geometry" />
        </mxCell>
        <mxCell id="sEUtPiDchVaYO2Z2piP0-133" value="" style="line;strokeWidth=1;fillColor=none;align=left;verticalAlign=middle;spacingTop=-1;spacingLeft=3;spacingRight=3;rotatable=0;labelPosition=right;points=[];portConstraint=eastwest;strokeColor=inherit;" parent="sEUtPiDchVaYO2Z2piP0-131" vertex="1">
          <mxGeometry y="50" width="150" height="8" as="geometry" />
        </mxCell>
        <mxCell id="sEUtPiDchVaYO2Z2piP0-134" value="&lt;div&gt;&lt;br&gt;&lt;/div&gt;" style="text;strokeColor=none;fillColor=none;align=left;verticalAlign=top;spacingLeft=4;spacingRight=4;overflow=hidden;rotatable=0;points=[[0,0.5],[1,0.5]];portConstraint=eastwest;whiteSpace=wrap;html=1;" parent="sEUtPiDchVaYO2Z2piP0-131" vertex="1">
          <mxGeometry y="58" width="150" height="26" as="geometry" />
        </mxCell>
        <mxCell id="sEUtPiDchVaYO2Z2piP0-136" value="" style="endArrow=block;endSize=16;endFill=0;html=1;rounded=0;edgeStyle=elbowEdgeStyle;" parent="1" source="sEUtPiDchVaYO2Z2piP0-91" target="sEUtPiDchVaYO2Z2piP0-56" edge="1">
          <mxGeometry width="160" relative="1" as="geometry">
            <mxPoint x="1200" y="394" as="sourcePoint" />
            <mxPoint x="940" y="394" as="targetPoint" />
            <Array as="points">
              <mxPoint x="1205" y="350" />
            </Array>
          </mxGeometry>
        </mxCell>
        <mxCell id="sEUtPiDchVaYO2Z2piP0-137" value="" style="endArrow=block;endSize=16;endFill=0;html=1;rounded=0;edgeStyle=elbowEdgeStyle;" parent="1" source="sEUtPiDchVaYO2Z2piP0-99" target="sEUtPiDchVaYO2Z2piP0-56" edge="1">
          <mxGeometry width="160" relative="1" as="geometry">
            <mxPoint x="1006" y="264" as="sourcePoint" />
            <mxPoint x="871" y="346" as="targetPoint" />
            <Array as="points">
              <mxPoint x="1205" y="240" />
            </Array>
          </mxGeometry>
        </mxCell>
        <mxCell id="sEUtPiDchVaYO2Z2piP0-138" value="" style="endArrow=block;endSize=16;endFill=0;html=1;rounded=0;edgeStyle=elbowEdgeStyle;" parent="1" source="sEUtPiDchVaYO2Z2piP0-95" target="sEUtPiDchVaYO2Z2piP0-56" edge="1">
          <mxGeometry width="160" relative="1" as="geometry">
            <mxPoint x="1032" y="154" as="sourcePoint" />
            <mxPoint x="838" y="346" as="targetPoint" />
            <Array as="points">
              <mxPoint x="1205" y="287" />
            </Array>
          </mxGeometry>
        </mxCell>
        <mxCell id="sEUtPiDchVaYO2Z2piP0-139" value="" style="endArrow=block;endSize=16;endFill=0;html=1;rounded=0;edgeStyle=elbowEdgeStyle;" parent="1" source="sEUtPiDchVaYO2Z2piP0-87" target="sEUtPiDchVaYO2Z2piP0-56" edge="1">
          <mxGeometry width="160" relative="1" as="geometry">
            <mxPoint x="1348" y="154" as="sourcePoint" />
            <mxPoint x="1237" y="420" as="targetPoint" />
            <Array as="points">
              <mxPoint x="1205" y="330" />
            </Array>
          </mxGeometry>
        </mxCell>
        <mxCell id="sEUtPiDchVaYO2Z2piP0-140" value="" style="endArrow=block;endSize=16;endFill=0;html=1;rounded=0;edgeStyle=elbowEdgeStyle;" parent="1" source="sEUtPiDchVaYO2Z2piP0-111" target="sEUtPiDchVaYO2Z2piP0-56" edge="1">
          <mxGeometry width="160" relative="1" as="geometry">
            <mxPoint x="1340" y="264" as="sourcePoint" />
            <mxPoint x="1246" y="420" as="targetPoint" />
            <Array as="points">
              <mxPoint x="1205" y="395" />
            </Array>
          </mxGeometry>
        </mxCell>
        <mxCell id="sEUtPiDchVaYO2Z2piP0-148" value="Extends" style="edgeLabel;html=1;align=center;verticalAlign=middle;resizable=0;points=[];" parent="sEUtPiDchVaYO2Z2piP0-140" vertex="1" connectable="0">
          <mxGeometry x="0.4759" relative="1" as="geometry">
            <mxPoint as="offset" />
          </mxGeometry>
        </mxCell>
        <mxCell id="sEUtPiDchVaYO2Z2piP0-142" value="" style="endArrow=block;endSize=16;endFill=0;html=1;rounded=0;edgeStyle=elbowEdgeStyle;" parent="1" source="sEUtPiDchVaYO2Z2piP0-123" target="sEUtPiDchVaYO2Z2piP0-56" edge="1">
          <mxGeometry width="160" relative="1" as="geometry">
            <mxPoint x="1320" y="570" as="sourcePoint" />
            <mxPoint x="1271" y="524" as="targetPoint" />
            <Array as="points">
              <mxPoint x="1205" y="590" />
            </Array>
          </mxGeometry>
        </mxCell>
        <mxCell id="sEUtPiDchVaYO2Z2piP0-143" value="" style="endArrow=block;endSize=16;endFill=0;html=1;rounded=0;edgeStyle=elbowEdgeStyle;" parent="1" source="sEUtPiDchVaYO2Z2piP0-131" target="sEUtPiDchVaYO2Z2piP0-56" edge="1">
          <mxGeometry width="160" relative="1" as="geometry">
            <mxPoint x="1339" y="669" as="sourcePoint" />
            <mxPoint x="1248" y="524" as="targetPoint" />
            <Array as="points">
              <mxPoint x="1205" y="670" />
            </Array>
          </mxGeometry>
        </mxCell>
        <mxCell id="sEUtPiDchVaYO2Z2piP0-144" value="" style="endArrow=block;endSize=16;endFill=0;html=1;rounded=0;edgeStyle=elbowEdgeStyle;" parent="1" source="sEUtPiDchVaYO2Z2piP0-127" target="sEUtPiDchVaYO2Z2piP0-56" edge="1">
          <mxGeometry width="160" relative="1" as="geometry">
            <mxPoint x="1346" y="770" as="sourcePoint" />
            <mxPoint x="1238" y="524" as="targetPoint" />
            <Array as="points">
              <mxPoint x="1205" y="770" />
            </Array>
          </mxGeometry>
        </mxCell>
        <mxCell id="sEUtPiDchVaYO2Z2piP0-145" value="" style="endArrow=block;endSize=16;endFill=0;html=1;rounded=0;edgeStyle=elbowEdgeStyle;" parent="1" source="sEUtPiDchVaYO2Z2piP0-119" target="sEUtPiDchVaYO2Z2piP0-56" edge="1">
          <mxGeometry width="160" relative="1" as="geometry">
            <mxPoint x="1092" y="770" as="sourcePoint" />
            <mxPoint x="1194" y="524" as="targetPoint" />
            <Array as="points">
              <mxPoint x="1205" y="640" />
            </Array>
          </mxGeometry>
        </mxCell>
        <mxCell id="sEUtPiDchVaYO2Z2piP0-146" value="" style="endArrow=block;endSize=16;endFill=0;html=1;rounded=0;edgeStyle=elbowEdgeStyle;" parent="1" source="sEUtPiDchVaYO2Z2piP0-103" target="sEUtPiDchVaYO2Z2piP0-56" edge="1">
          <mxGeometry width="160" relative="1" as="geometry">
            <mxPoint x="1100" y="669" as="sourcePoint" />
            <mxPoint x="1185" y="524" as="targetPoint" />
            <Array as="points">
              <mxPoint x="1205" y="590" />
            </Array>
          </mxGeometry>
        </mxCell>
        <mxCell id="sEUtPiDchVaYO2Z2piP0-149" value="Extends" style="edgeLabel;html=1;align=center;verticalAlign=middle;resizable=0;points=[];" parent="sEUtPiDchVaYO2Z2piP0-146" vertex="1" connectable="0">
          <mxGeometry x="0.3526" relative="1" as="geometry">
            <mxPoint as="offset" />
          </mxGeometry>
        </mxCell>
        <mxCell id="sEUtPiDchVaYO2Z2piP0-154" value="" style="endArrow=open;endFill=1;endSize=12;html=1;rounded=0;" parent="1" source="sEUtPiDchVaYO2Z2piP0-60" target="sEUtPiDchVaYO2Z2piP0-56" edge="1">
          <mxGeometry width="160" relative="1" as="geometry">
            <mxPoint x="810" y="480" as="sourcePoint" />
            <mxPoint x="970" y="480" as="targetPoint" />
          </mxGeometry>
        </mxCell>
        <mxCell id="sEUtPiDchVaYO2Z2piP0-157" value="commands" style="edgeLabel;html=1;align=center;verticalAlign=middle;resizable=0;points=[];" parent="sEUtPiDchVaYO2Z2piP0-154" vertex="1" connectable="0">
          <mxGeometry x="-0.1793" y="-1" relative="1" as="geometry">
            <mxPoint y="17" as="offset" />
          </mxGeometry>
        </mxCell>
        <mxCell id="sEUtPiDchVaYO2Z2piP0-155" value="" style="endArrow=open;endFill=1;endSize=12;html=1;rounded=0;" parent="1" source="sEUtPiDchVaYO2Z2piP0-60" target="sEUtPiDchVaYO2Z2piP0-42" edge="1">
          <mxGeometry width="160" relative="1" as="geometry">
            <mxPoint x="850" y="492" as="sourcePoint" />
            <mxPoint x="1000" y="492" as="targetPoint" />
          </mxGeometry>
        </mxCell>
        <mxCell id="sEUtPiDchVaYO2Z2piP0-156" value="players" style="edgeLabel;html=1;align=center;verticalAlign=middle;resizable=0;points=[];" parent="sEUtPiDchVaYO2Z2piP0-155" vertex="1" connectable="0">
          <mxGeometry x="-0.1298" y="2" relative="1" as="geometry">
            <mxPoint x="30" y="-14" as="offset" />
          </mxGeometry>
        </mxCell>
        <mxCell id="sEUtPiDchVaYO2Z2piP0-158" value="" style="endArrow=open;endFill=1;endSize=12;html=1;rounded=0;" parent="1" source="sEUtPiDchVaYO2Z2piP0-60" target="sEUtPiDchVaYO2Z2piP0-9" edge="1">
          <mxGeometry width="160" relative="1" as="geometry">
            <mxPoint x="678" y="417" as="sourcePoint" />
            <mxPoint x="535" y="204" as="targetPoint" />
          </mxGeometry>
        </mxCell>
        <mxCell id="sEUtPiDchVaYO2Z2piP0-159" value="map" style="edgeLabel;html=1;align=center;verticalAlign=middle;resizable=0;points=[];" parent="sEUtPiDchVaYO2Z2piP0-158" vertex="1" connectable="0">
          <mxGeometry x="-0.1298" y="2" relative="1" as="geometry">
            <mxPoint x="30" y="-14" as="offset" />
          </mxGeometry>
        </mxCell>
        <mxCell id="sEUtPiDchVaYO2Z2piP0-160" value="" style="endArrow=open;endFill=1;endSize=12;html=1;rounded=0;" parent="1" source="sEUtPiDchVaYO2Z2piP0-60" target="sEUtPiDchVaYO2Z2piP0-5" edge="1">
          <mxGeometry width="160" relative="1" as="geometry">
            <mxPoint x="590" y="469" as="sourcePoint" />
            <mxPoint x="300" y="402" as="targetPoint" />
          </mxGeometry>
        </mxCell>
        <mxCell id="sEUtPiDchVaYO2Z2piP0-161" value="db" style="edgeLabel;html=1;align=center;verticalAlign=middle;resizable=0;points=[];" parent="sEUtPiDchVaYO2Z2piP0-160" vertex="1" connectable="0">
          <mxGeometry x="-0.1298" y="2" relative="1" as="geometry">
            <mxPoint y="11" as="offset" />
          </mxGeometry>
        </mxCell>
        <mxCell id="sEUtPiDchVaYO2Z2piP0-162" value="" style="endArrow=open;endFill=1;endSize=12;html=1;rounded=0;" parent="1" source="sEUtPiDchVaYO2Z2piP0-60" target="sEUtPiDchVaYO2Z2piP0-46" edge="1">
          <mxGeometry width="160" relative="1" as="geometry">
            <mxPoint x="678" y="417" as="sourcePoint" />
            <mxPoint x="535" y="204" as="targetPoint" />
          </mxGeometry>
        </mxCell>
        <mxCell id="sEUtPiDchVaYO2Z2piP0-163" value="factions" style="edgeLabel;html=1;align=center;verticalAlign=middle;resizable=0;points=[];" parent="sEUtPiDchVaYO2Z2piP0-162" vertex="1" connectable="0">
          <mxGeometry x="-0.1298" y="2" relative="1" as="geometry">
            <mxPoint x="30" y="-14" as="offset" />
          </mxGeometry>
        </mxCell>
        <mxCell id="rZsYr_JSFGJsFNx73eMD-1" value="" style="endArrow=open;endFill=1;endSize=12;html=1;rounded=0;edgeStyle=elbowEdgeStyle;" edge="1" parent="1" source="sEUtPiDchVaYO2Z2piP0-24" target="sEUtPiDchVaYO2Z2piP0-24">
          <mxGeometry width="160" relative="1" as="geometry">
            <mxPoint x="222" y="710" as="sourcePoint" />
            <mxPoint x="760" y="840" as="targetPoint" />
            <Array as="points">
              <mxPoint x="640" y="1000" />
            </Array>
          </mxGeometry>
        </mxCell>
        <mxCell id="rZsYr_JSFGJsFNx73eMD-2" value="upgradeableTo: vector&amp;lt;Building*&amp;gt;" style="edgeLabel;html=1;align=center;verticalAlign=middle;resizable=0;points=[];" vertex="1" connectable="0" parent="rZsYr_JSFGJsFNx73eMD-1">
          <mxGeometry x="0.1771" y="-2" relative="1" as="geometry">
            <mxPoint x="92" y="-17" as="offset" />
          </mxGeometry>
        </mxCell>
        <mxCell id="rZsYr_JSFGJsFNx73eMD-4" value="" style="endArrow=open;endFill=1;endSize=12;html=1;rounded=0;edgeStyle=elbowEdgeStyle;" edge="1" parent="1" source="sEUtPiDchVaYO2Z2piP0-46" target="sEUtPiDchVaYO2Z2piP0-19">
          <mxGeometry width="160" relative="1" as="geometry">
            <mxPoint x="686" y="377" as="sourcePoint" />
            <mxPoint x="778" y="168" as="targetPoint" />
            <Array as="points">
              <mxPoint x="390" y="330" />
              <mxPoint x="570" y="109" />
              <mxPoint x="390" y="270" />
              <mxPoint x="390" y="630" />
            </Array>
          </mxGeometry>
        </mxCell>
        <mxCell id="rZsYr_JSFGJsFNx73eMD-5" value="factions" style="edgeLabel;html=1;align=center;verticalAlign=middle;resizable=0;points=[];" vertex="1" connectable="0" parent="rZsYr_JSFGJsFNx73eMD-4">
          <mxGeometry x="-0.1298" y="2" relative="1" as="geometry">
            <mxPoint x="30" y="-14" as="offset" />
          </mxGeometry>
        </mxCell>
        <mxCell id="rZsYr_JSFGJsFNx73eMD-6" value="terraformSequences" style="edgeLabel;html=1;align=center;verticalAlign=middle;resizable=0;points=[];" vertex="1" connectable="0" parent="rZsYr_JSFGJsFNx73eMD-4">
          <mxGeometry x="-0.883" y="-3" relative="1" as="geometry">
            <mxPoint as="offset" />
          </mxGeometry>
        </mxCell>
        <mxCell id="rZsYr_JSFGJsFNx73eMD-7" value="should return NEXT_PLAYER" style="rounded=0;whiteSpace=wrap;html=1;fillColor=#fff2cc;strokeColor=#d6b656;" vertex="1" parent="1">
          <mxGeometry x="1305" y="870" width="100" height="36" as="geometry" />
        </mxCell>
      </root>
    </mxGraphModel>
  </diagram>
</mxfile>
